<mxfile host="Electron" agent="Mozilla/5.0 (Macintosh; Intel Mac OS X 10_15_7) AppleWebKit/537.36 (KHTML, like Gecko) draw.io/26.2.15 Chrome/134.0.6998.205 Electron/35.2.1 Safari/537.36" version="26.2.15">
  <diagram name="Page-1" id="0M7leFQxBiiZswC2yUTQ">
    <mxGraphModel dx="2015" dy="1885" grid="1" gridSize="10" guides="1" tooltips="1" connect="1" arrows="1" fold="1" page="1" pageScale="1" pageWidth="827" pageHeight="1169" math="0" shadow="0">
      <root>
        <mxCell id="0" />
        <mxCell id="1" parent="0" />
        <mxCell id="3JkxL0K7Ac9c0lKrh_Uw-20" style="edgeStyle=orthogonalEdgeStyle;rounded=0;orthogonalLoop=1;jettySize=auto;html=1;entryX=0.5;entryY=1;entryDx=0;entryDy=0;" edge="1" parent="1" source="3JkxL0K7Ac9c0lKrh_Uw-1" target="3JkxL0K7Ac9c0lKrh_Uw-2">
          <mxGeometry relative="1" as="geometry" />
        </mxCell>
        <mxCell id="3JkxL0K7Ac9c0lKrh_Uw-21" style="edgeStyle=orthogonalEdgeStyle;rounded=0;orthogonalLoop=1;jettySize=auto;html=1;entryX=0.5;entryY=1;entryDx=0;entryDy=0;" edge="1" parent="1" source="3JkxL0K7Ac9c0lKrh_Uw-1" target="3JkxL0K7Ac9c0lKrh_Uw-4">
          <mxGeometry relative="1" as="geometry">
            <Array as="points">
              <mxPoint x="260" y="600" />
              <mxPoint x="500" y="600" />
            </Array>
          </mxGeometry>
        </mxCell>
        <mxCell id="3JkxL0K7Ac9c0lKrh_Uw-1" value="&lt;font style=&quot;font-size: 16px;&quot;&gt;X&lt;/font&gt;" style="rounded=0;whiteSpace=wrap;html=1;fillColor=#f5f5f5;fontColor=#333333;strokeColor=#666666;" vertex="1" parent="1">
          <mxGeometry x="200" y="640" width="120" height="40" as="geometry" />
        </mxCell>
        <mxCell id="3JkxL0K7Ac9c0lKrh_Uw-19" style="edgeStyle=orthogonalEdgeStyle;rounded=0;orthogonalLoop=1;jettySize=auto;html=1;entryX=0.5;entryY=1;entryDx=0;entryDy=0;" edge="1" parent="1" source="3JkxL0K7Ac9c0lKrh_Uw-2" target="3JkxL0K7Ac9c0lKrh_Uw-3">
          <mxGeometry relative="1" as="geometry" />
        </mxCell>
        <mxCell id="3JkxL0K7Ac9c0lKrh_Uw-2" value="&lt;span style=&quot;font-size: 16px;&quot;&gt;wq_a&lt;/span&gt;" style="rounded=0;whiteSpace=wrap;html=1;fillColor=#fff2cc;strokeColor=#d6b656;" vertex="1" parent="1">
          <mxGeometry x="80" y="520" width="120" height="40" as="geometry" />
        </mxCell>
        <mxCell id="3JkxL0K7Ac9c0lKrh_Uw-18" style="edgeStyle=orthogonalEdgeStyle;rounded=0;orthogonalLoop=1;jettySize=auto;html=1;entryX=0.5;entryY=1;entryDx=0;entryDy=0;" edge="1" parent="1" source="3JkxL0K7Ac9c0lKrh_Uw-3" target="3JkxL0K7Ac9c0lKrh_Uw-10">
          <mxGeometry relative="1" as="geometry" />
        </mxCell>
        <mxCell id="3JkxL0K7Ac9c0lKrh_Uw-3" value="&lt;font style=&quot;font-size: 16px;&quot;&gt;q_latent&lt;/font&gt;" style="rounded=0;whiteSpace=wrap;html=1;fillColor=#f5f5f5;fontColor=#333333;strokeColor=#666666;" vertex="1" parent="1">
          <mxGeometry x="80" y="440" width="120" height="40" as="geometry" />
        </mxCell>
        <mxCell id="3JkxL0K7Ac9c0lKrh_Uw-4" value="&lt;span style=&quot;font-size: 16px;&quot;&gt;wkv_a&lt;/span&gt;" style="rounded=0;whiteSpace=wrap;html=1;fillColor=#fff2cc;strokeColor=#d6b656;" vertex="1" parent="1">
          <mxGeometry x="360" y="520" width="280" height="40" as="geometry" />
        </mxCell>
        <mxCell id="3JkxL0K7Ac9c0lKrh_Uw-7" value="&lt;font style=&quot;font-size: 16px;&quot;&gt;k_pe&lt;/font&gt;" style="rounded=0;whiteSpace=wrap;html=1;fillColor=#f5f5f5;fontColor=#333333;strokeColor=#666666;" vertex="1" parent="1">
          <mxGeometry x="380" y="200" width="80" height="40" as="geometry" />
        </mxCell>
        <mxCell id="3JkxL0K7Ac9c0lKrh_Uw-27" style="edgeStyle=orthogonalEdgeStyle;rounded=0;orthogonalLoop=1;jettySize=auto;html=1;entryX=0.5;entryY=1;entryDx=0;entryDy=0;" edge="1" parent="1" source="3JkxL0K7Ac9c0lKrh_Uw-8" target="3JkxL0K7Ac9c0lKrh_Uw-26">
          <mxGeometry relative="1" as="geometry" />
        </mxCell>
        <mxCell id="3JkxL0K7Ac9c0lKrh_Uw-8" value="&lt;font style=&quot;font-size: 16px;&quot;&gt;kv_latent&lt;/font&gt;" style="rounded=0;whiteSpace=wrap;html=1;fillColor=#f5f5f5;fontColor=#333333;strokeColor=#666666;" vertex="1" parent="1">
          <mxGeometry x="480" y="400" width="160" height="40" as="geometry" />
        </mxCell>
        <mxCell id="3JkxL0K7Ac9c0lKrh_Uw-10" value="&lt;span style=&quot;font-size: 16px;&quot;&gt;wq_b&lt;/span&gt;" style="rounded=0;whiteSpace=wrap;html=1;fillColor=#fff2cc;strokeColor=#d6b656;" vertex="1" parent="1">
          <mxGeometry x="-40" y="360" width="240" height="40" as="geometry" />
        </mxCell>
        <mxCell id="3JkxL0K7Ac9c0lKrh_Uw-17" style="edgeStyle=orthogonalEdgeStyle;rounded=0;orthogonalLoop=1;jettySize=auto;html=1;entryX=0.5;entryY=1;entryDx=0;entryDy=0;" edge="1" parent="1" source="3JkxL0K7Ac9c0lKrh_Uw-12" target="3JkxL0K7Ac9c0lKrh_Uw-14">
          <mxGeometry relative="1" as="geometry" />
        </mxCell>
        <mxCell id="3JkxL0K7Ac9c0lKrh_Uw-12" value="&lt;span style=&quot;font-size: 16px;&quot;&gt;wq_b_pe&lt;/span&gt;" style="rounded=0;whiteSpace=wrap;html=1;fillColor=#fff2cc;strokeColor=#d6b656;" vertex="1" parent="1">
          <mxGeometry x="-40" y="320" width="110" height="40" as="geometry" />
        </mxCell>
        <mxCell id="3JkxL0K7Ac9c0lKrh_Uw-16" style="edgeStyle=orthogonalEdgeStyle;rounded=0;orthogonalLoop=1;jettySize=auto;html=1;entryX=0.5;entryY=1;entryDx=0;entryDy=0;" edge="1" parent="1" source="3JkxL0K7Ac9c0lKrh_Uw-13" target="3JkxL0K7Ac9c0lKrh_Uw-15">
          <mxGeometry relative="1" as="geometry" />
        </mxCell>
        <mxCell id="3JkxL0K7Ac9c0lKrh_Uw-13" value="&lt;span style=&quot;font-size: 16px;&quot;&gt;wq_b_nope&lt;/span&gt;" style="rounded=0;whiteSpace=wrap;html=1;fillColor=#d5e8d4;strokeColor=#82b366;" vertex="1" parent="1">
          <mxGeometry x="70" y="320" width="130" height="40" as="geometry" />
        </mxCell>
        <mxCell id="3JkxL0K7Ac9c0lKrh_Uw-14" value="&lt;font style=&quot;font-size: 16px;&quot;&gt;q_pe&lt;/font&gt;" style="rounded=0;whiteSpace=wrap;html=1;fillColor=#f5f5f5;fontColor=#333333;strokeColor=#666666;" vertex="1" parent="1">
          <mxGeometry x="-50" y="220" width="130" height="40" as="geometry" />
        </mxCell>
        <mxCell id="3JkxL0K7Ac9c0lKrh_Uw-15" value="&lt;font style=&quot;font-size: 16px;&quot;&gt;q_nope&lt;/font&gt;" style="rounded=0;whiteSpace=wrap;html=1;fillColor=#f5f5f5;fontColor=#333333;strokeColor=#666666;" vertex="1" parent="1">
          <mxGeometry x="80" y="220" width="110" height="40" as="geometry" />
        </mxCell>
        <mxCell id="3JkxL0K7Ac9c0lKrh_Uw-24" style="edgeStyle=orthogonalEdgeStyle;rounded=0;orthogonalLoop=1;jettySize=auto;html=1;entryX=0.5;entryY=1;entryDx=0;entryDy=0;" edge="1" parent="1" source="3JkxL0K7Ac9c0lKrh_Uw-22" target="3JkxL0K7Ac9c0lKrh_Uw-7">
          <mxGeometry relative="1" as="geometry" />
        </mxCell>
        <mxCell id="3JkxL0K7Ac9c0lKrh_Uw-22" value="&lt;span style=&quot;font-size: 16px;&quot;&gt;wkv_a_k_pe&lt;/span&gt;" style="rounded=0;whiteSpace=wrap;html=1;fillColor=#fff2cc;strokeColor=#d6b656;" vertex="1" parent="1">
          <mxGeometry x="360" y="480" width="120" height="40" as="geometry" />
        </mxCell>
        <mxCell id="3JkxL0K7Ac9c0lKrh_Uw-25" style="edgeStyle=orthogonalEdgeStyle;rounded=0;orthogonalLoop=1;jettySize=auto;html=1;entryX=0.5;entryY=1;entryDx=0;entryDy=0;" edge="1" parent="1" source="3JkxL0K7Ac9c0lKrh_Uw-23" target="3JkxL0K7Ac9c0lKrh_Uw-8">
          <mxGeometry relative="1" as="geometry" />
        </mxCell>
        <mxCell id="3JkxL0K7Ac9c0lKrh_Uw-23" value="&lt;span style=&quot;font-size: 16px;&quot;&gt;wkv_a_nope&lt;/span&gt;" style="rounded=0;whiteSpace=wrap;html=1;fillColor=#fff2cc;strokeColor=#d6b656;" vertex="1" parent="1">
          <mxGeometry x="480" y="480" width="160" height="40" as="geometry" />
        </mxCell>
        <mxCell id="3JkxL0K7Ac9c0lKrh_Uw-26" value="&lt;span style=&quot;font-size: 16px;&quot;&gt;wkv_b&lt;/span&gt;" style="rounded=0;whiteSpace=wrap;html=1;fillColor=#fff2cc;strokeColor=#d6b656;" vertex="1" parent="1">
          <mxGeometry x="450" y="320" width="220" height="40" as="geometry" />
        </mxCell>
        <mxCell id="3JkxL0K7Ac9c0lKrh_Uw-28" value="&lt;font style=&quot;font-size: 16px;&quot;&gt;k_nope&lt;/font&gt;" style="rounded=0;whiteSpace=wrap;html=1;fillColor=#f5f5f5;fontColor=#333333;strokeColor=#666666;" vertex="1" parent="1">
          <mxGeometry x="460" y="200" width="80" height="40" as="geometry" />
        </mxCell>
        <mxCell id="3JkxL0K7Ac9c0lKrh_Uw-45" style="edgeStyle=orthogonalEdgeStyle;rounded=0;orthogonalLoop=1;jettySize=auto;html=1;entryX=0.5;entryY=1;entryDx=0;entryDy=0;" edge="1" parent="1" source="3JkxL0K7Ac9c0lKrh_Uw-29" target="3JkxL0K7Ac9c0lKrh_Uw-42">
          <mxGeometry relative="1" as="geometry" />
        </mxCell>
        <mxCell id="3JkxL0K7Ac9c0lKrh_Uw-29" value="&lt;font style=&quot;font-size: 16px;&quot;&gt;v&lt;/font&gt;" style="rounded=0;whiteSpace=wrap;html=1;fillColor=#f5f5f5;fontColor=#333333;strokeColor=#666666;" vertex="1" parent="1">
          <mxGeometry x="590" y="200" width="80" height="40" as="geometry" />
        </mxCell>
        <mxCell id="3JkxL0K7Ac9c0lKrh_Uw-46" style="edgeStyle=orthogonalEdgeStyle;rounded=0;orthogonalLoop=1;jettySize=auto;html=1;entryX=0.5;entryY=1;entryDx=0;entryDy=0;" edge="1" parent="1" source="3JkxL0K7Ac9c0lKrh_Uw-31" target="3JkxL0K7Ac9c0lKrh_Uw-40">
          <mxGeometry relative="1" as="geometry" />
        </mxCell>
        <mxCell id="3JkxL0K7Ac9c0lKrh_Uw-31" value="&lt;font style=&quot;font-size: 16px;&quot;&gt;QK^T&lt;/font&gt;" style="rounded=0;whiteSpace=wrap;html=1;fillColor=#f5f5f5;fontColor=#333333;strokeColor=#666666;" vertex="1" parent="1">
          <mxGeometry x="200" y="80" width="130" height="40" as="geometry" />
        </mxCell>
        <mxCell id="3JkxL0K7Ac9c0lKrh_Uw-37" style="edgeStyle=orthogonalEdgeStyle;rounded=0;orthogonalLoop=1;jettySize=auto;html=1;entryX=0.5;entryY=1;entryDx=0;entryDy=0;" edge="1" parent="1" source="3JkxL0K7Ac9c0lKrh_Uw-33" target="3JkxL0K7Ac9c0lKrh_Uw-28">
          <mxGeometry relative="1" as="geometry" />
        </mxCell>
        <mxCell id="3JkxL0K7Ac9c0lKrh_Uw-33" value="&lt;span style=&quot;font-size: 16px;&quot;&gt;wk_b_nope&lt;/span&gt;" style="rounded=0;whiteSpace=wrap;html=1;fillColor=#d5e8d4;strokeColor=#82b366;" vertex="1" parent="1">
          <mxGeometry x="450" y="280" width="140" height="40" as="geometry" />
        </mxCell>
        <mxCell id="3JkxL0K7Ac9c0lKrh_Uw-36" style="edgeStyle=orthogonalEdgeStyle;rounded=0;orthogonalLoop=1;jettySize=auto;html=1;entryX=0.5;entryY=1;entryDx=0;entryDy=0;" edge="1" parent="1" source="3JkxL0K7Ac9c0lKrh_Uw-34" target="3JkxL0K7Ac9c0lKrh_Uw-29">
          <mxGeometry relative="1" as="geometry" />
        </mxCell>
        <mxCell id="3JkxL0K7Ac9c0lKrh_Uw-34" value="&lt;span style=&quot;font-size: 16px;&quot;&gt;wv_b&lt;/span&gt;" style="rounded=0;whiteSpace=wrap;html=1;fillColor=#dae8fc;strokeColor=#6c8ebf;" vertex="1" parent="1">
          <mxGeometry x="590" y="280" width="80" height="40" as="geometry" />
        </mxCell>
        <mxCell id="3JkxL0K7Ac9c0lKrh_Uw-38" value="" style="endArrow=classic;html=1;rounded=0;entryX=0;entryY=1;entryDx=0;entryDy=0;" edge="1" parent="1" target="3JkxL0K7Ac9c0lKrh_Uw-31">
          <mxGeometry width="50" height="50" relative="1" as="geometry">
            <mxPoint x="80" y="220" as="sourcePoint" />
            <mxPoint x="130" y="170" as="targetPoint" />
          </mxGeometry>
        </mxCell>
        <mxCell id="3JkxL0K7Ac9c0lKrh_Uw-39" value="" style="endArrow=classic;html=1;rounded=0;entryX=1;entryY=1;entryDx=0;entryDy=0;exitX=0;exitY=0;exitDx=0;exitDy=0;" edge="1" parent="1" source="3JkxL0K7Ac9c0lKrh_Uw-28" target="3JkxL0K7Ac9c0lKrh_Uw-31">
          <mxGeometry width="50" height="50" relative="1" as="geometry">
            <mxPoint x="90" y="230" as="sourcePoint" />
            <mxPoint x="275" y="130" as="targetPoint" />
          </mxGeometry>
        </mxCell>
        <mxCell id="3JkxL0K7Ac9c0lKrh_Uw-43" style="edgeStyle=orthogonalEdgeStyle;rounded=0;orthogonalLoop=1;jettySize=auto;html=1;entryX=0.5;entryY=1;entryDx=0;entryDy=0;" edge="1" parent="1" source="3JkxL0K7Ac9c0lKrh_Uw-40" target="3JkxL0K7Ac9c0lKrh_Uw-41">
          <mxGeometry relative="1" as="geometry" />
        </mxCell>
        <mxCell id="3JkxL0K7Ac9c0lKrh_Uw-40" value="&lt;span style=&quot;font-size: 16px;&quot;&gt;softmax&lt;/span&gt;" style="rounded=0;whiteSpace=wrap;html=1;fillColor=#fff2cc;strokeColor=#d6b656;" vertex="1" parent="1">
          <mxGeometry x="200" width="130" height="40" as="geometry" />
        </mxCell>
        <mxCell id="3JkxL0K7Ac9c0lKrh_Uw-44" style="edgeStyle=orthogonalEdgeStyle;rounded=0;orthogonalLoop=1;jettySize=auto;html=1;entryX=0;entryY=0.5;entryDx=0;entryDy=0;" edge="1" parent="1" source="3JkxL0K7Ac9c0lKrh_Uw-41" target="3JkxL0K7Ac9c0lKrh_Uw-42">
          <mxGeometry relative="1" as="geometry" />
        </mxCell>
        <mxCell id="3JkxL0K7Ac9c0lKrh_Uw-41" value="&lt;font style=&quot;font-size: 16px;&quot;&gt;s&lt;/font&gt;" style="rounded=0;whiteSpace=wrap;html=1;fillColor=#f5f5f5;fontColor=#333333;strokeColor=#666666;" vertex="1" parent="1">
          <mxGeometry x="200" y="-80" width="130" height="40" as="geometry" />
        </mxCell>
        <mxCell id="3JkxL0K7Ac9c0lKrh_Uw-48" style="edgeStyle=orthogonalEdgeStyle;rounded=0;orthogonalLoop=1;jettySize=auto;html=1;entryX=0.5;entryY=1;entryDx=0;entryDy=0;" edge="1" parent="1" source="3JkxL0K7Ac9c0lKrh_Uw-42" target="3JkxL0K7Ac9c0lKrh_Uw-47">
          <mxGeometry relative="1" as="geometry" />
        </mxCell>
        <mxCell id="3JkxL0K7Ac9c0lKrh_Uw-42" value="&lt;font style=&quot;font-size: 16px;&quot;&gt;sv&lt;/font&gt;" style="rounded=0;whiteSpace=wrap;html=1;fillColor=#f5f5f5;fontColor=#333333;strokeColor=#666666;" vertex="1" parent="1">
          <mxGeometry x="565" y="-80" width="130" height="40" as="geometry" />
        </mxCell>
        <mxCell id="3JkxL0K7Ac9c0lKrh_Uw-49" style="edgeStyle=orthogonalEdgeStyle;rounded=0;orthogonalLoop=1;jettySize=auto;html=1;" edge="1" parent="1" source="3JkxL0K7Ac9c0lKrh_Uw-47">
          <mxGeometry relative="1" as="geometry">
            <mxPoint x="490" y="-140" as="targetPoint" />
          </mxGeometry>
        </mxCell>
        <mxCell id="3JkxL0K7Ac9c0lKrh_Uw-47" value="&lt;span style=&quot;font-size: 16px;&quot;&gt;o_proj&lt;/span&gt;" style="rounded=0;whiteSpace=wrap;html=1;fillColor=#dae8fc;strokeColor=#6c8ebf;" vertex="1" parent="1">
          <mxGeometry x="577.5" y="-160" width="105" height="40" as="geometry" />
        </mxCell>
        <mxCell id="3JkxL0K7Ac9c0lKrh_Uw-50" value="&lt;font style=&quot;font-size: 16px;&quot;&gt;out&lt;/font&gt;" style="rounded=0;whiteSpace=wrap;html=1;fillColor=#f5f5f5;fontColor=#333333;strokeColor=#666666;" vertex="1" parent="1">
          <mxGeometry x="410" y="-160" width="80" height="40" as="geometry" />
        </mxCell>
        <mxCell id="3JkxL0K7Ac9c0lKrh_Uw-51" value="&lt;font style=&quot;font-size: 20px;&quot;&gt;&lt;b&gt;NORAL MLA&lt;/b&gt;&lt;/font&gt;" style="text;html=1;align=center;verticalAlign=middle;whiteSpace=wrap;rounded=0;" vertex="1" parent="1">
          <mxGeometry x="320" y="720" width="170" height="40" as="geometry" />
        </mxCell>
        <mxCell id="3JkxL0K7Ac9c0lKrh_Uw-52" style="edgeStyle=orthogonalEdgeStyle;rounded=0;orthogonalLoop=1;jettySize=auto;html=1;entryX=0.5;entryY=1;entryDx=0;entryDy=0;" edge="1" parent="1" source="3JkxL0K7Ac9c0lKrh_Uw-54" target="3JkxL0K7Ac9c0lKrh_Uw-56">
          <mxGeometry relative="1" as="geometry" />
        </mxCell>
        <mxCell id="3JkxL0K7Ac9c0lKrh_Uw-53" style="edgeStyle=orthogonalEdgeStyle;rounded=0;orthogonalLoop=1;jettySize=auto;html=1;entryX=0.5;entryY=1;entryDx=0;entryDy=0;" edge="1" parent="1" source="3JkxL0K7Ac9c0lKrh_Uw-54" target="3JkxL0K7Ac9c0lKrh_Uw-59">
          <mxGeometry relative="1" as="geometry">
            <Array as="points">
              <mxPoint x="1120" y="600" />
              <mxPoint x="1360" y="600" />
            </Array>
          </mxGeometry>
        </mxCell>
        <mxCell id="3JkxL0K7Ac9c0lKrh_Uw-54" value="&lt;font style=&quot;font-size: 16px;&quot;&gt;X&lt;/font&gt;" style="rounded=0;whiteSpace=wrap;html=1;fillColor=#f5f5f5;fontColor=#333333;strokeColor=#666666;" vertex="1" parent="1">
          <mxGeometry x="1060" y="640" width="120" height="40" as="geometry" />
        </mxCell>
        <mxCell id="3JkxL0K7Ac9c0lKrh_Uw-55" style="edgeStyle=orthogonalEdgeStyle;rounded=0;orthogonalLoop=1;jettySize=auto;html=1;entryX=0.5;entryY=1;entryDx=0;entryDy=0;" edge="1" parent="1" source="3JkxL0K7Ac9c0lKrh_Uw-56" target="3JkxL0K7Ac9c0lKrh_Uw-58">
          <mxGeometry relative="1" as="geometry" />
        </mxCell>
        <mxCell id="3JkxL0K7Ac9c0lKrh_Uw-56" value="&lt;span style=&quot;font-size: 16px;&quot;&gt;wq_a&lt;/span&gt;" style="rounded=0;whiteSpace=wrap;html=1;fillColor=#fff2cc;strokeColor=#d6b656;" vertex="1" parent="1">
          <mxGeometry x="940" y="520" width="120" height="40" as="geometry" />
        </mxCell>
        <mxCell id="3JkxL0K7Ac9c0lKrh_Uw-57" style="edgeStyle=orthogonalEdgeStyle;rounded=0;orthogonalLoop=1;jettySize=auto;html=1;entryX=0.5;entryY=1;entryDx=0;entryDy=0;" edge="1" parent="1" source="3JkxL0K7Ac9c0lKrh_Uw-58" target="3JkxL0K7Ac9c0lKrh_Uw-63">
          <mxGeometry relative="1" as="geometry" />
        </mxCell>
        <mxCell id="3JkxL0K7Ac9c0lKrh_Uw-58" value="&lt;font style=&quot;font-size: 16px;&quot;&gt;q_latent&lt;/font&gt;" style="rounded=0;whiteSpace=wrap;html=1;fillColor=#f5f5f5;fontColor=#333333;strokeColor=#666666;" vertex="1" parent="1">
          <mxGeometry x="940" y="440" width="120" height="40" as="geometry" />
        </mxCell>
        <mxCell id="3JkxL0K7Ac9c0lKrh_Uw-59" value="&lt;span style=&quot;font-size: 16px;&quot;&gt;wkv_a&lt;/span&gt;" style="rounded=0;whiteSpace=wrap;html=1;fillColor=#fff2cc;strokeColor=#d6b656;" vertex="1" parent="1">
          <mxGeometry x="1220" y="520" width="280" height="40" as="geometry" />
        </mxCell>
        <mxCell id="3JkxL0K7Ac9c0lKrh_Uw-100" style="edgeStyle=orthogonalEdgeStyle;rounded=0;orthogonalLoop=1;jettySize=auto;html=1;entryX=0;entryY=0.5;entryDx=0;entryDy=0;" edge="1" parent="1" source="3JkxL0K7Ac9c0lKrh_Uw-60" target="3JkxL0K7Ac9c0lKrh_Uw-79">
          <mxGeometry relative="1" as="geometry">
            <Array as="points">
              <mxPoint x="1280" y="160" />
              <mxPoint x="880" y="160" />
              <mxPoint x="880" y="100" />
            </Array>
          </mxGeometry>
        </mxCell>
        <mxCell id="3JkxL0K7Ac9c0lKrh_Uw-60" value="&lt;font style=&quot;font-size: 16px;&quot;&gt;k_pe&lt;/font&gt;" style="rounded=0;whiteSpace=wrap;html=1;fillColor=#f5f5f5;fontColor=#333333;strokeColor=#666666;" vertex="1" parent="1">
          <mxGeometry x="1240" y="200" width="80" height="40" as="geometry" />
        </mxCell>
        <mxCell id="3JkxL0K7Ac9c0lKrh_Uw-101" style="edgeStyle=orthogonalEdgeStyle;rounded=0;orthogonalLoop=1;jettySize=auto;html=1;entryX=0.5;entryY=1;entryDx=0;entryDy=0;" edge="1" parent="1" source="3JkxL0K7Ac9c0lKrh_Uw-62" target="3JkxL0K7Ac9c0lKrh_Uw-91">
          <mxGeometry relative="1" as="geometry" />
        </mxCell>
        <mxCell id="3JkxL0K7Ac9c0lKrh_Uw-103" style="edgeStyle=orthogonalEdgeStyle;rounded=0;orthogonalLoop=1;jettySize=auto;html=1;" edge="1" parent="1" source="3JkxL0K7Ac9c0lKrh_Uw-62">
          <mxGeometry relative="1" as="geometry">
            <mxPoint x="1130" y="122" as="targetPoint" />
            <Array as="points">
              <mxPoint x="1420" y="100" />
              <mxPoint x="1130" y="100" />
            </Array>
          </mxGeometry>
        </mxCell>
        <mxCell id="3JkxL0K7Ac9c0lKrh_Uw-62" value="&lt;font style=&quot;font-size: 16px;&quot;&gt;kv_latent&lt;/font&gt;" style="rounded=0;whiteSpace=wrap;html=1;fillColor=#f5f5f5;fontColor=#333333;strokeColor=#666666;" vertex="1" parent="1">
          <mxGeometry x="1340" y="380" width="160" height="40" as="geometry" />
        </mxCell>
        <mxCell id="3JkxL0K7Ac9c0lKrh_Uw-63" value="&lt;span style=&quot;font-size: 16px;&quot;&gt;wq_b&lt;/span&gt;" style="rounded=0;whiteSpace=wrap;html=1;fillColor=#fff2cc;strokeColor=#d6b656;" vertex="1" parent="1">
          <mxGeometry x="820" y="360" width="240" height="40" as="geometry" />
        </mxCell>
        <mxCell id="3JkxL0K7Ac9c0lKrh_Uw-64" style="edgeStyle=orthogonalEdgeStyle;rounded=0;orthogonalLoop=1;jettySize=auto;html=1;entryX=0.5;entryY=1;entryDx=0;entryDy=0;" edge="1" parent="1" source="3JkxL0K7Ac9c0lKrh_Uw-65" target="3JkxL0K7Ac9c0lKrh_Uw-68">
          <mxGeometry relative="1" as="geometry" />
        </mxCell>
        <mxCell id="3JkxL0K7Ac9c0lKrh_Uw-65" value="&lt;span style=&quot;font-size: 16px;&quot;&gt;wq_b_pe&lt;/span&gt;" style="rounded=0;whiteSpace=wrap;html=1;fillColor=#fff2cc;strokeColor=#d6b656;" vertex="1" parent="1">
          <mxGeometry x="820" y="290" width="110" height="70" as="geometry" />
        </mxCell>
        <mxCell id="3JkxL0K7Ac9c0lKrh_Uw-66" style="edgeStyle=orthogonalEdgeStyle;rounded=0;orthogonalLoop=1;jettySize=auto;html=1;entryX=0.5;entryY=1;entryDx=0;entryDy=0;" edge="1" parent="1" source="3JkxL0K7Ac9c0lKrh_Uw-67" target="3JkxL0K7Ac9c0lKrh_Uw-69">
          <mxGeometry relative="1" as="geometry" />
        </mxCell>
        <mxCell id="3JkxL0K7Ac9c0lKrh_Uw-67" value="&lt;span style=&quot;font-size: 16px;&quot;&gt;wq_b_nope *&lt;/span&gt;&lt;div&gt;&lt;span style=&quot;font-size: 16px;&quot;&gt;wk_b_nope^T&lt;/span&gt;&lt;/div&gt;" style="rounded=0;whiteSpace=wrap;html=1;fillColor=#d5e8d4;strokeColor=#82b366;" vertex="1" parent="1">
          <mxGeometry x="930" y="290" width="130" height="70" as="geometry" />
        </mxCell>
        <mxCell id="3JkxL0K7Ac9c0lKrh_Uw-99" style="edgeStyle=orthogonalEdgeStyle;rounded=0;orthogonalLoop=1;jettySize=auto;html=1;entryX=0;entryY=0.5;entryDx=0;entryDy=0;" edge="1" parent="1" source="3JkxL0K7Ac9c0lKrh_Uw-68" target="3JkxL0K7Ac9c0lKrh_Uw-79">
          <mxGeometry relative="1" as="geometry">
            <Array as="points">
              <mxPoint x="880" y="100" />
            </Array>
          </mxGeometry>
        </mxCell>
        <mxCell id="3JkxL0K7Ac9c0lKrh_Uw-68" value="&lt;font style=&quot;font-size: 16px;&quot;&gt;q_pe&lt;/font&gt;" style="rounded=0;whiteSpace=wrap;html=1;fillColor=#f5f5f5;fontColor=#333333;strokeColor=#666666;" vertex="1" parent="1">
          <mxGeometry x="810" y="190" width="130" height="40" as="geometry" />
        </mxCell>
        <mxCell id="3JkxL0K7Ac9c0lKrh_Uw-102" style="edgeStyle=orthogonalEdgeStyle;rounded=0;orthogonalLoop=1;jettySize=auto;html=1;entryX=1;entryY=0.5;entryDx=0;entryDy=0;" edge="1" parent="1" source="3JkxL0K7Ac9c0lKrh_Uw-69" target="3JkxL0K7Ac9c0lKrh_Uw-79">
          <mxGeometry relative="1" as="geometry">
            <Array as="points">
              <mxPoint x="1230" y="210" />
              <mxPoint x="1230" y="100" />
            </Array>
          </mxGeometry>
        </mxCell>
        <mxCell id="3JkxL0K7Ac9c0lKrh_Uw-69" value="&lt;font style=&quot;font-size: 16px;&quot;&gt;q_absorb&lt;/font&gt;" style="rounded=0;whiteSpace=wrap;html=1;fillColor=#f5f5f5;fontColor=#333333;strokeColor=#666666;" vertex="1" parent="1">
          <mxGeometry x="940" y="190" width="110" height="40" as="geometry" />
        </mxCell>
        <mxCell id="3JkxL0K7Ac9c0lKrh_Uw-70" style="edgeStyle=orthogonalEdgeStyle;rounded=0;orthogonalLoop=1;jettySize=auto;html=1;entryX=0.5;entryY=1;entryDx=0;entryDy=0;" edge="1" parent="1" source="3JkxL0K7Ac9c0lKrh_Uw-71" target="3JkxL0K7Ac9c0lKrh_Uw-60">
          <mxGeometry relative="1" as="geometry" />
        </mxCell>
        <mxCell id="3JkxL0K7Ac9c0lKrh_Uw-71" value="&lt;span style=&quot;font-size: 16px;&quot;&gt;wkv_a_k_pe&lt;/span&gt;" style="rounded=0;whiteSpace=wrap;html=1;fillColor=#fff2cc;strokeColor=#d6b656;" vertex="1" parent="1">
          <mxGeometry x="1220" y="480" width="120" height="40" as="geometry" />
        </mxCell>
        <mxCell id="3JkxL0K7Ac9c0lKrh_Uw-72" style="edgeStyle=orthogonalEdgeStyle;rounded=0;orthogonalLoop=1;jettySize=auto;html=1;entryX=0.5;entryY=1;entryDx=0;entryDy=0;" edge="1" parent="1" source="3JkxL0K7Ac9c0lKrh_Uw-73" target="3JkxL0K7Ac9c0lKrh_Uw-62">
          <mxGeometry relative="1" as="geometry" />
        </mxCell>
        <mxCell id="3JkxL0K7Ac9c0lKrh_Uw-73" value="&lt;span style=&quot;font-size: 16px;&quot;&gt;wkv_a_nope&lt;/span&gt;" style="rounded=0;whiteSpace=wrap;html=1;fillColor=#fff2cc;strokeColor=#d6b656;" vertex="1" parent="1">
          <mxGeometry x="1340" y="480" width="160" height="40" as="geometry" />
        </mxCell>
        <mxCell id="3JkxL0K7Ac9c0lKrh_Uw-78" style="edgeStyle=orthogonalEdgeStyle;rounded=0;orthogonalLoop=1;jettySize=auto;html=1;entryX=0.5;entryY=1;entryDx=0;entryDy=0;" edge="1" parent="1" source="3JkxL0K7Ac9c0lKrh_Uw-79" target="3JkxL0K7Ac9c0lKrh_Uw-87">
          <mxGeometry relative="1" as="geometry" />
        </mxCell>
        <mxCell id="3JkxL0K7Ac9c0lKrh_Uw-79" value="&lt;font style=&quot;font-size: 16px;&quot;&gt;QK^T&lt;/font&gt;" style="rounded=0;whiteSpace=wrap;html=1;fillColor=#f5f5f5;fontColor=#333333;strokeColor=#666666;" vertex="1" parent="1">
          <mxGeometry x="1060" y="80" width="130" height="40" as="geometry" />
        </mxCell>
        <mxCell id="3JkxL0K7Ac9c0lKrh_Uw-86" style="edgeStyle=orthogonalEdgeStyle;rounded=0;orthogonalLoop=1;jettySize=auto;html=1;entryX=0.5;entryY=1;entryDx=0;entryDy=0;" edge="1" parent="1" source="3JkxL0K7Ac9c0lKrh_Uw-87" target="3JkxL0K7Ac9c0lKrh_Uw-89">
          <mxGeometry relative="1" as="geometry" />
        </mxCell>
        <mxCell id="3JkxL0K7Ac9c0lKrh_Uw-87" value="&lt;span style=&quot;font-size: 16px;&quot;&gt;softmax&lt;/span&gt;" style="rounded=0;whiteSpace=wrap;html=1;fillColor=#fff2cc;strokeColor=#d6b656;" vertex="1" parent="1">
          <mxGeometry x="1060" width="130" height="40" as="geometry" />
        </mxCell>
        <mxCell id="3JkxL0K7Ac9c0lKrh_Uw-88" style="edgeStyle=orthogonalEdgeStyle;rounded=0;orthogonalLoop=1;jettySize=auto;html=1;entryX=0;entryY=0.5;entryDx=0;entryDy=0;" edge="1" parent="1" source="3JkxL0K7Ac9c0lKrh_Uw-89" target="3JkxL0K7Ac9c0lKrh_Uw-91">
          <mxGeometry relative="1" as="geometry" />
        </mxCell>
        <mxCell id="3JkxL0K7Ac9c0lKrh_Uw-89" value="&lt;font style=&quot;font-size: 16px;&quot;&gt;s&lt;/font&gt;" style="rounded=0;whiteSpace=wrap;html=1;fillColor=#f5f5f5;fontColor=#333333;strokeColor=#666666;" vertex="1" parent="1">
          <mxGeometry x="1060" y="-80" width="130" height="40" as="geometry" />
        </mxCell>
        <mxCell id="3JkxL0K7Ac9c0lKrh_Uw-90" style="edgeStyle=orthogonalEdgeStyle;rounded=0;orthogonalLoop=1;jettySize=auto;html=1;entryX=0.5;entryY=1;entryDx=0;entryDy=0;" edge="1" parent="1" source="3JkxL0K7Ac9c0lKrh_Uw-91" target="3JkxL0K7Ac9c0lKrh_Uw-93">
          <mxGeometry relative="1" as="geometry" />
        </mxCell>
        <mxCell id="3JkxL0K7Ac9c0lKrh_Uw-91" value="&lt;font style=&quot;font-size: 16px;&quot;&gt;sv&lt;/font&gt;" style="rounded=0;whiteSpace=wrap;html=1;fillColor=#f5f5f5;fontColor=#333333;strokeColor=#666666;" vertex="1" parent="1">
          <mxGeometry x="1355" y="-80" width="130" height="40" as="geometry" />
        </mxCell>
        <mxCell id="3JkxL0K7Ac9c0lKrh_Uw-92" style="edgeStyle=orthogonalEdgeStyle;rounded=0;orthogonalLoop=1;jettySize=auto;html=1;" edge="1" parent="1" source="3JkxL0K7Ac9c0lKrh_Uw-93">
          <mxGeometry relative="1" as="geometry">
            <mxPoint x="1280" y="-140" as="targetPoint" />
          </mxGeometry>
        </mxCell>
        <mxCell id="3JkxL0K7Ac9c0lKrh_Uw-93" value="&lt;span style=&quot;font-size: 16px;&quot;&gt;o_proj * wv_b&lt;/span&gt;" style="rounded=0;whiteSpace=wrap;html=1;fillColor=#dae8fc;strokeColor=#6c8ebf;" vertex="1" parent="1">
          <mxGeometry x="1353.75" y="-160" width="132.5" height="40" as="geometry" />
        </mxCell>
        <mxCell id="3JkxL0K7Ac9c0lKrh_Uw-94" value="&lt;font style=&quot;font-size: 16px;&quot;&gt;out&lt;/font&gt;" style="rounded=0;whiteSpace=wrap;html=1;fillColor=#f5f5f5;fontColor=#333333;strokeColor=#666666;" vertex="1" parent="1">
          <mxGeometry x="1200" y="-160" width="80" height="40" as="geometry" />
        </mxCell>
        <mxCell id="3JkxL0K7Ac9c0lKrh_Uw-95" value="&lt;font style=&quot;font-size: 20px;&quot;&gt;&lt;b&gt;ABSORB MLA&lt;/b&gt;&lt;/font&gt;" style="text;html=1;align=center;verticalAlign=middle;whiteSpace=wrap;rounded=0;" vertex="1" parent="1">
          <mxGeometry x="1180" y="720" width="170" height="40" as="geometry" />
        </mxCell>
      </root>
    </mxGraphModel>
  </diagram>
</mxfile>
